<svg viewBox="0 0 92 95.79" xmlns="http://www.w3.org/2000/svg"><g fill="#000a38"><path d="m5.63 92.27a1.69 1.69 0 0 0 1.79 1.15c.88 0 1.49-.38 1.49-1.08 0-.53-.34-.77-1-.94l-2.17-.4c-1.62-.37-2.84-1.23-2.84-3.14 0-2.21 1.8-3.66 4.25-3.66 2.7 0 4.23 1.51 4.53 3.45h-2.82a1.66 1.66 0 0 0 -1.7-1.1c-.82 0-1.38.37-1.38 1s.34.78.92.9l2.16.52c1.89.46 2.93 1.5 2.93 3.25 0 2.31-1.91 3.63-4.32 3.63-2.65 0-4.45-1.3-4.84-3.52z"/><path d="m14.72 84.34h9.73v2.53h-3.45v8.74h-2.87v-8.74h-3.41z"/><path d="m35.88 84.34v2.53h-5.06v1.76h4.62v2.48h-4.62v2h5.06v2.55h-7.88v-11.32z"/><path d="m46.12 84.34 4.21 11.27h-2.94l-.79-2.19h-4l-.78 2.19h-2.82l4.21-11.27zm-2.65 6.66h2.27l-1.14-3.18z"/><path d="m53.62 84.34h2.9v8.72h4.95v2.55h-7.85z"/><path d="m63 84.34h9.72v2.53h-3.4v8.74h-2.9v-8.74h-3.42z"/><path d="m86.33 84.34v11.27h-2.9v-4.46h-4.27v4.46h-2.9v-11.27h2.9v4.27h4.27v-4.27z"/><path d="m92 46-14.84-14.84-1.48-1.48-13.36-13.36-1.48-1.48-14.84-14.84-14.84 14.84-1.48 1.48-13.36 13.36-1.48 1.48-14.84 14.84 16.32 16.32 14.84-14.84 14.84 14.84 14.84-14.84 14.84 14.84zm-31.16-28.19 13.35 13.35-6.67 6.68-6.68 6.68-13.36-13.36 6.68-6.68zm-14.84-14.81 13.36 13.32-6.68 6.68-6.68 6.68-6.68-6.68-6.68-6.68zm-28.19 28.16 13.35-13.35 6.68 6.67 6.68 6.68-13.36 13.36-6.68-6.68zm-1.49 28.2-13.32-13.36 13.32-13.36 6.68 6.68 6.68 6.68zm29.68 0-13.36-13.36 13.36-13.36 13.36 13.36zm23-20 6.68-6.68 13.32 13.32-13.32 13.36-13.36-13.36z"/></g></svg>