<?xml version="1.0" encoding="UTF-8"?>
<svg width="925px" height="220px" viewBox="0 0 925 220" version="1.1" xmlns="http://www.w3.org/2000/svg" xmlns:xlink="http://www.w3.org/1999/xlink">
    <title>Dark bg</title>
    <g id="Page-1" stroke="none" stroke-width="1" fill="none" fill-rule="evenodd">
        <g id="Dark-bg">
            <rect id="Rectangle" fill="#0D1117" x="0" y="0" width="925" height="220"></rect>
            <path d="M629.337829,63 L629.33697,98.175 L629.375,98.1953125 L661.083984,63 L700.844727,63 L654.360352,112.472656 L703.999023,162.692383 L662.329102,162.692383 L629.375,126.334961 L629.33697,126.199 L629.337829,162.692383 L598.95697,162.692383 L598.95697,63 L629.337829,63 Z M747.441437,163 L747.441437,63.3076172 L717.060578,63.3076172 L717.060578,163 L747.441437,163 Z M838.098602,163 L838.098602,89.0400391 L881.760711,89.0400391 L881.760711,63.3076172 L764.055633,63.3076172 L764.055633,89.0400391 L807.717743,89.0400391 L807.717743,163 L838.098602,163 Z" id="KIT" fill="#9CA3AF" fill-rule="nonzero"></path>
            <path d="M265.038178,163 L298.324311,126.642578 L331.278412,163 L372.948334,163 L323.309662,112.780273 L369.794037,63.3076172 L330.033295,63.3076172 L298.324311,98.5029297 L266.781342,63.3076172 L226.522553,63.3076172 L273.338959,112.780273 L223.949311,163 L265.038178,163 Z M416.28714,163 L416.28714,63.3076172 L385.906281,63.3076172 L385.906281,163 L416.28714,163 Z M470.333954,163 L470.333954,139.010742 L525.11911,139.010742 C528.384084,139.010742 531.593719,138.817057 534.748016,138.429688 C539.451792,137.931641 543.436167,136.631185 546.701141,134.52832 C554.72523,129.60319 558.764943,118.148112 558.820282,100.163086 C558.87562,94.0205078 558.183889,88.1546224 556.745086,82.5654297 C554.476206,73.2685547 548.720998,67.5133464 539.479461,65.2998047 C535.052378,64.2483724 530.182586,63.6396484 524.870086,63.4736328 L524.870086,63.4736328 L512.252899,63.3076172 L439.953094,63.3076172 L439.953094,163 L470.333954,163 Z M508.600555,113.27832 L470.333954,113.27832 L470.333954,89.0400391 L507.385507,89.0404626 C512.836071,89.0480857 516.94877,89.1586217 519.723602,89.3720703 C525.423472,89.7594401 528.328745,93.4394531 528.439422,100.412109 C528.439422,104.230469 527.77536,107.301758 526.447235,109.625977 C525.285126,111.728841 522.490529,112.890951 518.063446,113.112305 L518.063446,113.112305 L508.600555,113.27832 Z" id="XIP" fill="#9CA3AF" fill-rule="nonzero"></path>
            <g id="Attempt-2" transform="translate(34.000000, 28.000000)" fill-rule="nonzero">
                <path d="M35.5079177,0.152082297 L77.9343246,42.5784892 L77.8572,42.6550823 L77.7222,77.722 L42.585,77.858 L42.6852,77.7570823 L0.3292,35.4010823 L0.2292,35.502 L0.3647,0.3647 L35.4302,0.229082297 L35.5079177,0.152082297 Z" id="Combined-Shape" fill="#60A5FA"></path>
                <path d="M135.585,0.2293 L170.722,0.3647 L170.858,35.4323 L170.933918,35.5079177 L128.507511,77.9343246 L128.43,77.8573 L93.365,77.722 L93.229,42.585 L93.329,42.6843 L135.685,0.3283 L135.585,0.2293 Z" id="Combined-Shape" fill="#34D399"></path>
                <path d="M128.502,91.229 L128.401675,91.329 L170.757675,133.685 L170.858,133.585 L170.722,168.722 L135.653675,168.858 L135.579082,168.933918 L93.1526754,126.507511 L93.2286754,126.431 L93.365,91.365 L128.502,91.229 Z" id="Combined-Shape" fill="#60A5FA"></path>
                <path d="M42.5789892,91.1526754 L42.6545823,91.2286754 L77.7222,91.365 L77.8576,126.502 L77.7575823,126.401675 L35.4015823,168.757675 L35.5019,168.858 L0.3647,168.722 L0.228582297,133.654675 L0.152582297,133.579082 L42.5789892,91.1526754 Z" id="Combined-Shape" fill="#34D399"></path>
            </g>
        </g>
    </g>
</svg>